<svg width="544" height="122" viewBox="0 0 544 122" fill="none" xmlns="http://www.w3.org/2000/svg">
<g opacity="0.1">
<path d="M543.344 24.1178C543.159 24.3047 542.881 24.5852 542.881 24.7722C542.418 30.6618 539.823 35.3361 535.652 39.356C533.984 40.9453 533.892 40.9453 535.004 43.002C537.135 46.9284 537.969 51.2288 537.506 55.6226C536.765 61.8862 533.799 67.028 528.702 70.8609C525.273 73.385 521.473 75.0678 517.303 75.0678C478.379 75.0678 439.456 74.9743 400.532 74.8808C386.26 74.8808 372.081 74.8808 357.809 74.8808C357.345 74.8808 356.975 74.8808 356.326 74.8808C356.789 73.0111 357.16 71.2348 357.623 69.5521C360.682 57.1184 363.833 44.6847 366.891 32.1576C367.076 31.3162 367.447 31.0358 368.188 31.1292C371.895 31.1292 375.602 31.1292 379.309 31.1292C380.143 31.1292 380.422 31.2227 380.143 32.2511C378.29 39.6365 376.436 46.9284 374.676 54.3138C374.12 56.464 373.656 58.6142 373.1 60.7644C372.915 61.6058 373.1 61.8862 373.934 61.7927C374.305 61.7927 374.768 61.7927 375.139 61.7927C422.218 61.7927 469.297 61.7927 516.469 61.8862C518.508 61.8862 520.268 61.6058 521.844 60.2035C523.327 58.8947 524.346 57.3054 524.717 55.2487C525.644 49.8265 522.585 45.1522 517.025 44.3108C513.41 43.7499 509.889 43.9369 506.367 43.9369C471.799 43.8434 437.231 43.9369 402.664 43.9369C402.2 43.9369 401.644 43.9369 400.995 43.9369C401.459 42.2541 401.829 40.7583 402.2 39.2625C402.849 36.8319 403.405 34.4013 404.054 31.9706C404.239 31.1292 404.61 30.8488 405.444 30.8488C407.112 31.0358 408.873 31.0358 410.541 31.1292C424.164 31.2227 437.695 31.3162 451.318 31.4097C460.122 31.5032 468.834 31.5967 477.638 31.5967C485.237 31.6902 492.836 31.7836 500.436 31.7836C507.479 31.8771 514.522 31.9706 521.566 31.9706C523.883 31.9706 526.014 31.2227 527.775 29.54C529.907 27.4833 530.648 24.9591 530.463 21.9676C530.277 18.6021 527.59 15.0496 524.253 14.3017C523.327 14.1147 522.307 13.9278 521.288 13.9278C506.83 13.9278 492.466 13.9278 478.008 13.9278C450.113 13.8343 422.218 13.7408 394.323 13.7408C367.076 13.6473 339.83 13.5538 312.676 13.5538C311.008 13.5538 311.008 13.5538 310.637 15.1431C307.857 26.4549 305.077 37.6733 302.296 48.9851C300.257 57.2119 298.219 65.4387 296.18 73.6655C296.087 74.0394 295.624 74.5069 295.253 74.5069C291.268 74.6004 287.283 74.5069 283.205 74.5069C283.113 74.5069 282.927 74.4134 282.649 74.4134C283.391 71.5153 284.039 68.7107 284.781 65.9061C288.766 49.92 292.658 34.0273 296.643 18.0412C298.033 12.432 299.423 6.82281 300.721 1.21363C300.906 0.278767 301.37 0.0917969 302.296 0.0917969C350.673 0.0917969 399.049 0.0917969 447.333 0.0917969C473.004 0.0917969 498.768 0.0917969 524.439 0.0917969C527.034 0.0917969 529.351 1.12015 531.482 2.24198C535.282 4.29868 538.062 7.29024 540.101 11.0297C541.769 14.2082 543.159 17.3868 543.252 21.0327C543.252 21.2197 543.437 21.4067 543.53 21.5936C543.344 22.5285 543.344 23.2764 543.344 24.1178Z" fill="#F2F2F2"/>
<path d="M418.793 122C419.349 119.195 419.998 116.391 420.554 113.493C420.646 112.838 421.017 112.558 421.666 112.651C422.593 112.838 423.056 112.371 423.427 111.53C426.114 106.388 427.504 100.966 428.617 95.3565C428.709 94.7021 428.895 94.3281 429.636 94.3281C434.084 94.3281 438.625 94.3281 443.074 94.3281C443.259 94.3281 443.352 94.4216 443.63 94.4216C443.167 96.5718 442.703 98.8155 442.24 100.966C441.498 104.612 440.664 108.164 439.923 111.81C439.83 112.464 439.923 112.745 440.664 112.745C441.406 112.745 441.498 113.025 441.313 113.68C440.757 116.017 440.294 118.354 439.83 120.691C439.738 121.159 439.83 121.533 439.83 122C438.811 122 437.791 122 436.679 122C437.05 119.943 437.513 117.887 437.884 115.736C432.88 115.736 427.968 115.736 422.963 115.736C422.593 117.887 422.315 119.943 421.944 122C420.924 122 419.812 122 418.793 122ZM439.182 97.3197C437.05 97.3197 435.011 97.4132 433.065 97.3197C432.138 97.3197 431.86 97.6936 431.582 98.535C430.377 102.555 428.987 106.481 427.69 110.408C427.412 111.156 427.134 111.904 426.856 112.745C430.007 112.745 432.88 112.745 435.938 112.745C437.05 107.603 438.069 102.555 439.182 97.3197Z" fill="#F2F2F2"/>
<path d="M248.821 74.6955C253.825 54.409 258.83 34.1225 263.834 13.7425C263 13.7425 262.444 13.7425 261.888 13.7425C179.222 13.7425 96.4628 13.7425 13.7965 13.836C8.88475 13.836 6.56787 10.377 6.56787 6.54404C6.66055 3.55248 8.42137 0.841377 11.2016 0.186973C11.7577 0.093487 12.3137 0 12.7771 0C89.8829 0 166.989 0 244.094 0C255.957 0 267.727 0 279.589 0C280.052 0 280.516 0 281.072 0C280.423 2.80459 279.682 5.60918 279.033 8.32028C278.662 10.003 278.384 11.7793 277.921 13.462C277.087 16.921 276.067 20.38 275.141 23.839C273.009 32.2528 270.877 40.6665 268.839 49.0803C266.8 57.3071 264.854 65.6274 262.815 73.8542C262.722 74.1346 262.351 74.6021 262.073 74.6021C257.718 74.6955 253.269 74.6955 248.821 74.6955Z" fill="#D2D2D2"/>
<path d="M92.2034 75.1629C66.069 75.1629 39.9346 75.1629 13.7075 75.1629C10.5566 75.1629 8.05435 73.3867 7.12759 70.3951C6.29352 67.871 7.40562 65.0664 9.90785 63.2902C11.2053 62.3553 12.6881 62.1684 14.1709 62.1684C27.1454 62.1684 40.2126 62.1684 53.1872 62.1684C92.2034 62.1684 131.127 62.1684 170.143 62.1684C173.85 62.1684 177.372 58.8029 177.928 55.1569C178.391 51.7914 177.65 48.9868 175.148 46.6496C173.665 45.3408 171.997 44.4995 169.958 44.4995C141.97 44.4995 113.982 44.4995 85.9942 44.4995C83.2139 44.4995 81.175 43.3776 79.9703 40.76C78.6728 38.0489 79.2289 35.5248 81.175 33.4681C82.3798 32.1593 83.8626 31.4114 85.8088 31.4114C113.519 31.4114 141.136 31.4114 168.846 31.4114C179.503 31.4114 188.493 38.9838 190.439 49.3607C191.737 56.1852 189.883 62.2618 185.435 67.4971C181.82 71.7974 177.187 74.1346 171.719 75.0695C171.255 75.1629 170.792 75.0695 170.421 75.0695C144.287 75.1629 118.245 75.1629 92.2034 75.1629Z" fill="#F2F2F2"/>
<path d="M384.687 115.642C383.018 115.642 381.258 115.642 379.589 115.642C378.848 115.642 378.57 115.455 378.755 114.614C380.145 108.07 381.536 101.526 382.926 94.9818C383.018 94.7013 383.574 94.2339 383.852 94.2339C387.096 94.2339 390.432 94.2339 393.676 94.4209C395.993 94.5143 397.568 96.0101 398.124 98.2538C398.588 100.124 397.661 102.367 395.9 103.302C395.622 103.489 395.251 103.583 394.881 103.863C394.325 104.237 394.232 104.517 394.881 104.985C395.715 105.639 396.549 106.294 397.012 107.135C398.124 109.005 397.29 110.781 396.271 112.464C395.159 114.333 393.213 115.081 391.174 115.362C388.95 115.642 386.725 115.642 384.594 115.736C384.687 115.736 384.687 115.736 384.687 115.642ZM387.003 112.651C387.93 112.651 388.857 112.651 389.784 112.651C391.452 112.557 392.749 111.996 393.491 110.407C394.232 108.631 393.491 106.761 391.544 106.481C389.32 106.2 387.003 106.294 384.687 106.294C384.501 106.294 384.223 106.668 384.223 106.855C383.852 108.444 383.482 110.127 383.111 111.716C383.018 112.277 383.204 112.651 383.852 112.651C384.965 112.651 385.984 112.651 387.003 112.651ZM385.057 103.396C387.652 103.302 389.876 103.209 392.101 103.022C393.676 102.835 394.603 101.245 394.417 99.4691C394.232 98.0668 393.305 97.3189 391.544 97.3189C390.34 97.3189 389.135 97.3189 388.023 97.3189C386.355 97.3189 386.262 97.3189 385.984 99.0017C385.613 100.31 385.428 101.713 385.057 103.396Z" fill="#F2F2F2"/>
<path d="M189.88 115.643C188.119 115.643 186.358 115.643 184.69 115.643C183.949 115.643 183.763 115.363 183.949 114.708C185.339 108.164 186.729 101.62 188.119 95.076C188.212 94.7021 188.768 94.3281 189.046 94.3281C192.289 94.3281 195.626 94.3281 198.869 94.5151C201.372 94.7021 203.04 96.3848 203.41 98.722C203.688 100.218 202.669 102.835 200.538 103.677C200.167 103.77 199.981 104.144 199.703 104.425C199.981 104.705 200.167 104.986 200.445 105.173C202.762 106.668 203.225 108.725 202.206 111.249C201.094 113.867 198.962 115.082 196.367 115.363C194.236 115.643 192.011 115.643 189.88 115.736C189.88 115.736 189.88 115.736 189.88 115.643ZM188.304 112.651C190.899 112.651 193.216 112.745 195.44 112.651C196.923 112.651 198.128 111.81 198.684 110.408C199.425 108.632 198.684 106.762 196.831 106.481C195.162 106.201 193.494 106.294 191.733 106.294C189.602 106.294 189.509 106.294 189.046 108.445C188.86 109.753 188.582 111.156 188.304 112.651ZM194.792 97.3197C193.958 97.3197 193.124 97.2262 192.382 97.3197C192.011 97.4132 191.548 97.7871 191.455 98.0676C191.085 99.3764 190.807 100.779 190.529 102.181C190.343 102.835 190.529 103.209 191.363 103.209C192.846 103.209 194.421 103.303 195.904 103.209C196.738 103.116 197.572 102.929 198.313 102.555C199.425 101.994 199.981 100.405 199.703 99.0959C199.425 97.9741 198.499 97.3197 197.109 97.3197C196.274 97.3197 195.533 97.3197 194.792 97.3197Z" fill="#F2F2F2"/>
<path d="M495.154 94.3281C494.227 98.8155 493.301 103.209 492.374 107.603C492.467 107.697 492.559 107.79 492.745 107.79C493.301 107.323 493.857 106.949 494.32 106.388C496.73 103.49 499.139 100.592 501.641 97.7871C502.197 97.1327 502.661 96.5718 503.217 95.9174C503.958 94.889 504.792 94.1412 506.183 94.4216C506.739 94.5151 507.387 94.4216 508.129 94.4216C507.758 96.1979 507.387 97.7871 507.109 99.4699C505.997 104.705 504.885 109.847 503.773 115.082C503.68 115.363 503.217 115.83 502.939 115.83C499.417 115.83 499.881 116.391 500.622 113.119C501.271 109.847 502.012 106.575 502.754 103.303C502.846 103.022 502.661 102.648 502.568 102.368C502.29 102.555 502.012 102.555 501.827 102.835C498.583 106.668 495.34 110.595 492.096 114.428C490.984 115.736 489.223 116.391 487.74 115.923C487.555 115.83 487.277 115.363 487.369 115.082C488.018 111.904 488.76 108.725 489.408 105.546C490.15 102.181 490.798 98.909 491.54 95.5434C491.725 94.7956 492.003 94.5151 492.745 94.6086C493.301 94.3281 494.135 94.3281 495.154 94.3281Z" fill="#F2F2F2"/>
<path d="M408.685 94.3276C407.758 98.815 406.831 103.209 405.905 107.509C405.997 107.603 406.09 107.696 406.275 107.696C406.831 107.229 407.387 106.855 407.851 106.294C410.26 103.396 412.67 100.498 415.172 97.6932C415.728 97.0388 416.284 96.3843 416.748 95.7299C417.489 94.7951 418.323 94.0472 419.62 94.2342C420.269 94.3277 420.825 94.2342 421.659 94.2342C421.196 96.3843 420.825 98.441 420.362 100.404C419.342 105.172 418.323 110.033 417.304 114.801C417.211 115.456 416.933 115.549 416.377 115.549C413.041 115.456 413.411 116.016 414.153 112.744C414.801 109.472 415.543 106.2 416.284 102.928C416.377 102.648 416.191 102.274 416.191 101.994C415.913 102.087 415.635 102.18 415.45 102.461C412.206 106.294 408.87 110.22 405.719 114.053C404.607 115.362 402.939 116.016 401.363 115.549C401.178 115.456 400.9 114.988 400.993 114.708C402.012 109.846 403.032 104.985 404.144 100.124C404.514 98.5345 404.885 96.8518 405.163 95.2625C405.256 94.5146 405.627 94.2342 406.368 94.2342C406.831 94.3277 407.665 94.3276 408.685 94.3276Z" fill="#F2F2F2"/>
<path d="M267.077 103.023C266.891 108.072 264.018 113.587 258.921 115.457C254.751 116.953 250.302 116.018 247.893 112.185C246.595 110.035 246.225 107.604 246.781 105.08C247.337 102.556 248.078 100.219 249.654 98.162C251.229 96.1053 253.268 94.7965 255.77 94.1421C258.18 93.4877 260.589 93.6746 262.906 94.9834C265.594 96.5727 267.169 99.8447 267.077 103.023ZM250.395 107.137C250.395 109.38 251.044 111.344 253.175 112.372C255.4 113.4 257.531 113.12 259.385 111.624C261.423 110.128 262.35 107.885 262.906 105.454C263.37 103.584 263.37 101.621 262.536 99.7512C261.053 96.3857 255.956 96.1053 253.361 98.9099C251.322 101.247 250.395 104.052 250.395 107.137Z" fill="#F2F2F2"/>
<path d="M100.17 103.208C99.7065 107.883 98.0383 112.089 93.6826 114.707C89.3268 117.231 83.7663 116.764 80.9861 112.276C79.5959 110.033 79.3179 107.509 79.874 104.985C80.43 102.554 81.1714 100.217 82.7469 98.16C84.3224 96.1033 86.4539 94.7945 88.8635 94.2336C91.273 93.5792 93.6826 93.7662 95.9068 95.075C98.9651 96.7577 99.9845 99.6558 100.17 103.208ZM96.2775 103.115C96.2775 102.928 96.2775 102.834 96.2775 102.647C96.2775 100.123 95.1654 98.2535 93.3119 97.5056C90.6243 96.4773 87.9367 97.4121 86.4539 99.0014C84.3224 101.339 83.3956 104.237 83.3956 107.509C83.4883 109.565 84.0444 111.342 85.9905 112.276C88.0294 113.305 89.9756 113.211 91.8291 111.996C95.0727 109.846 95.9995 106.667 96.2775 103.115Z" fill="#F2F2F2"/>
<path d="M181.724 103.208C181.26 107.883 179.592 112.089 175.237 114.707C170.881 117.231 165.32 116.764 162.54 112.276C161.15 110.033 160.872 107.509 161.428 104.985C161.984 102.554 162.725 100.217 164.301 98.16C165.876 96.1033 168.008 94.7945 170.417 94.2336C172.827 93.5792 175.237 93.7662 177.461 95.075C180.519 96.7577 181.631 99.6558 181.724 103.208ZM165.042 107.041C165.042 109.378 165.691 110.968 166.988 111.903C169.305 113.492 172.364 113.305 174.402 111.342C176.905 108.911 177.924 105.919 177.831 102.554C177.831 100.123 176.627 98.2535 174.773 97.5991C171.993 96.4773 169.398 97.5991 168.008 99.0949C165.969 101.245 165.042 104.05 165.042 107.041Z" fill="#F2F2F2"/>
<path d="M18.8998 112.932C21.5874 112.745 22.0508 112.371 22.6068 109.753C23.6262 104.985 24.6457 100.124 25.7578 95.3563C25.8504 94.9823 26.3138 94.3279 26.5918 94.3279C31.0403 94.2344 35.5813 94.3279 40.2151 94.3279C39.7517 96.4781 39.381 98.4413 38.9176 100.498C37.8982 105.266 36.8788 110.127 35.8594 114.895C35.674 115.549 35.4887 115.736 34.8399 115.736C34.0985 115.736 33.4498 115.736 32.7084 115.736C31.967 115.736 31.8743 115.456 31.967 114.801C33.0791 109.566 34.1912 104.331 35.3033 99.0957C35.674 97.6 35.4887 97.413 34.0059 97.413C32.7084 97.413 31.5036 97.413 30.2062 97.413C29.3721 97.413 29.0014 97.5999 28.816 98.5348C27.8893 103.022 26.8699 107.603 25.7578 111.997C24.9237 114.988 23.0702 116.297 20.3826 116.204C19.8266 116.204 19.2705 116.11 18.8071 115.923C18.6218 115.83 18.3438 115.362 18.3438 115.175C18.5291 114.334 18.8071 113.68 18.8998 112.932Z" fill="#F2F2F2"/>
<path d="M357.347 94.3281C356.791 96.8523 356.327 99.2829 355.864 101.714C354.937 106.107 353.918 110.501 352.991 114.895C352.898 115.55 352.62 115.643 352.064 115.643C351.323 115.643 350.674 115.643 349.933 115.643C349.191 115.643 349.006 115.363 349.191 114.708C350.303 109.473 351.416 104.238 352.528 99.0024C352.898 97.4132 352.806 97.3197 351.138 97.3197C349.84 97.3197 348.635 97.3197 347.338 97.3197C346.504 97.3197 346.226 97.6002 346.04 98.4415C345.021 103.022 344.187 107.603 342.889 111.997C341.963 115.55 339.553 116.671 335.939 115.923C335.753 115.83 335.568 115.736 335.29 115.643C335.475 114.802 335.753 113.867 335.939 113.025C338.719 112.745 339.275 112.277 339.831 109.286C340.851 104.612 341.777 99.8438 342.797 95.1695C342.889 94.7956 343.353 94.3281 343.723 94.3281C348.172 94.3281 352.62 94.3281 357.347 94.3281Z" fill="#F2F2F2"/>
<path d="M473.374 94.3267C472.818 97.2248 472.262 99.8424 471.613 102.74C471.984 102.834 472.354 102.834 472.632 102.834C474.949 102.834 477.266 102.834 479.676 102.834C480.417 102.834 480.788 102.554 480.88 101.899C481.344 99.6554 481.807 97.5052 482.271 95.2616C482.363 94.6072 482.641 94.2332 483.383 94.3267C484.309 94.3267 485.236 94.3267 486.348 94.3267C485.885 96.4769 485.514 98.4401 485.051 100.497C484.031 105.265 483.012 110.126 481.993 114.894C481.9 115.548 481.622 115.735 480.973 115.735C480.232 115.735 479.583 115.735 478.842 115.735C478.1 115.735 477.915 115.455 478.1 114.8C478.656 112.276 479.212 109.845 479.676 107.321C479.954 106.106 479.768 105.919 478.656 105.919C476.432 105.919 474.301 105.919 472.076 105.919C471.242 105.919 470.872 106.106 470.686 106.947C470.13 109.658 469.481 112.276 469.018 114.987C468.925 115.642 468.647 115.829 468.091 115.735C467.721 115.735 467.443 115.735 467.072 115.735C464.477 115.735 464.94 115.735 465.404 113.678C466.608 107.602 467.999 101.525 469.296 95.4485C469.481 94.6072 469.759 94.3267 470.593 94.3267C471.428 94.3267 472.354 94.3267 473.374 94.3267Z" fill="#F2F2F2"/>
<path d="M449.089 112.745C453.352 112.745 457.244 112.745 461.322 112.745C461.136 113.68 460.951 114.521 460.673 115.269C460.58 115.549 460.117 115.736 459.839 115.736C455.112 115.736 450.386 115.736 445.66 115.736C444.918 115.736 444.733 115.456 444.918 114.708C446.308 108.164 447.698 101.713 449.089 95.1693C449.181 94.7954 449.737 94.3279 450.015 94.3279C454.464 94.2344 459.005 94.3279 463.453 94.3279C464.102 94.3279 464.287 94.4214 464.102 95.1693C463.453 97.7869 463.824 97.3195 461.507 97.3195C458.819 97.3195 456.132 97.3195 453.537 97.3195C452.703 97.3195 452.332 97.6 452.24 98.4413C452.054 99.9371 451.683 101.433 451.313 103.022C451.869 103.022 452.332 103.116 452.796 103.116C455.576 103.116 458.263 103.116 461.044 103.116C462.434 103.116 462.434 103.116 462.063 104.518V104.611C461.97 105.827 461.322 106.201 460.024 106.201C457.244 106.107 454.464 106.201 451.683 106.201C450.942 106.201 450.571 106.388 450.386 107.229C449.923 108.912 449.459 110.688 449.089 112.745Z" fill="#F2F2F2"/>
<path d="M323.06 103.022C323.709 103.022 324.08 103.116 324.543 103.116C327.416 103.116 330.289 103.116 333.069 103.116C333.811 103.116 334.089 103.209 333.811 104.051C333.162 106.294 333.718 106.107 331.216 106.107C328.621 106.107 326.119 106.201 323.524 106.107C322.504 106.107 322.134 106.481 321.948 107.323C321.67 109.099 321.3 110.782 320.929 112.651C321.578 112.651 321.948 112.745 322.412 112.745C325.563 112.745 328.714 112.745 331.865 112.745C332.791 112.745 333.162 112.838 332.791 113.96C332.143 115.923 332.699 115.83 330.474 115.83C326.119 115.83 321.763 115.83 317.5 115.83C316.666 115.83 316.388 115.643 316.573 114.708C317.963 108.258 319.353 101.807 320.744 95.263C320.836 94.9826 321.3 94.5151 321.578 94.5151C326.211 94.5151 330.845 94.5151 335.479 94.5151C335.572 94.5151 335.664 94.6086 335.942 94.7021C335.757 95.45 335.664 96.2914 335.386 97.0393C335.294 97.3197 334.645 97.5067 334.274 97.5067C331.309 97.5067 328.436 97.6002 325.47 97.5067C324.451 97.5067 323.987 97.6937 323.802 98.909C323.802 100.031 323.431 101.433 323.06 103.022Z" fill="#F2F2F2"/>
<path d="M288.673 94.5147C288.488 95.3561 288.395 96.1974 288.024 96.8518C287.931 97.1323 287.283 97.3193 286.912 97.3193C283.946 97.3193 281.073 97.4128 278.108 97.3193C277.088 97.3193 276.625 97.5063 276.532 98.6281C276.44 99.7499 276.162 100.872 275.791 101.994C275.513 102.928 275.884 103.115 276.718 103.115C279.591 103.115 282.464 103.115 285.244 103.115C285.615 103.115 286.078 103.115 286.634 103.115C286.449 104.05 286.263 104.892 285.985 105.64C285.893 105.92 285.244 106.107 284.873 106.107C281.908 106.107 279.035 106.107 276.069 106.107C275.235 106.107 274.772 106.294 274.586 107.229C274.308 108.725 273.937 110.22 273.659 111.81C273.474 112.651 273.937 112.838 274.679 112.838C277.923 112.838 281.166 112.838 284.317 112.838C284.688 112.838 285.151 112.838 285.707 112.838C285.522 113.773 285.337 114.614 285.059 115.362C284.966 115.643 284.502 115.83 284.224 115.83C279.405 115.83 274.679 115.83 269.86 115.83C269.118 115.83 269.026 115.456 269.211 114.801C270.323 109.566 271.528 104.237 272.64 99.002C272.918 97.7867 273.103 96.4779 273.381 95.3561C273.474 94.9821 273.938 94.5147 274.308 94.5147C278.849 94.4212 283.39 94.5147 287.931 94.5147C288.209 94.3277 288.395 94.4212 288.673 94.5147Z" fill="#F2F2F2"/>
<path d="M362.813 112.651C365.315 112.651 367.539 112.651 369.763 112.651C371.154 112.651 372.544 112.651 374.026 112.651C374.675 112.651 375.046 112.745 374.768 113.586C374.119 115.923 374.675 115.643 372.173 115.643C367.91 115.643 363.739 115.643 359.476 115.643C358.457 115.643 358.179 115.456 358.457 114.334C359.847 107.884 361.145 101.433 362.535 95.076C362.627 94.7956 363.091 94.3281 363.369 94.3281C368.003 94.3281 372.636 94.3281 377.27 94.3281C377.363 94.3281 377.455 94.4216 377.733 94.5151C377.548 95.3565 377.363 96.1044 377.085 96.9457C376.992 97.2262 376.436 97.3197 376.065 97.3197C373.1 97.3197 370.227 97.4132 367.261 97.3197C366.242 97.3197 365.778 97.5067 365.593 98.722C365.408 100.124 365.037 101.527 364.666 103.022C365.315 103.022 365.686 103.116 366.149 103.116C369.022 103.116 371.895 103.116 374.675 103.116C375.417 103.116 375.695 103.209 375.417 104.051C374.768 106.294 375.324 106.107 372.822 106.107C370.227 106.107 367.725 106.201 365.13 106.107C364.11 106.107 363.739 106.481 363.554 107.323C363.554 109.005 363.183 110.782 362.813 112.651Z" fill="#F2F2F2"/>
<path d="M528.605 94.5154C528.42 95.2632 528.327 96.1046 528.049 96.6655C527.864 96.946 527.308 97.2265 526.937 97.2265C523.971 97.32 520.913 97.32 517.947 97.2265C517.113 97.2265 516.65 97.4134 516.557 98.3483C516.372 99.5636 516.094 100.779 515.816 101.901C515.723 102.181 515.723 102.462 515.723 102.929C516.65 102.929 517.484 102.929 518.225 102.929C520.728 102.929 523.23 102.929 525.639 102.929C526.381 102.929 526.659 103.023 526.381 103.864C525.732 106.108 526.288 105.921 523.786 105.921C521.191 105.921 518.596 105.921 516.001 105.921C515.26 105.921 514.796 106.108 514.611 106.949C514.333 108.538 513.962 110.034 513.592 111.623C513.499 111.904 513.592 112.091 513.684 112.465C514.148 112.465 514.704 112.558 515.167 112.558C518.318 112.558 521.469 112.558 524.62 112.558C525.454 112.558 525.918 112.745 525.454 113.587C525.361 113.867 525.269 114.241 525.176 114.521C525.083 115.269 524.713 115.55 523.971 115.55C519.338 115.55 514.611 115.55 509.977 115.55C509.143 115.55 508.958 115.363 509.143 114.521C510.533 108.071 511.924 101.62 513.314 95.0763C513.406 94.7023 513.87 94.2349 514.148 94.2349C518.782 94.1414 523.415 94.2349 528.049 94.2349C528.234 94.3284 528.327 94.4219 528.605 94.5154Z" fill="#F2F2F2"/>
<path d="M55.0343 110.782C52.1613 110.782 49.3811 110.782 46.6008 110.782C46.3228 110.782 45.9521 111.063 45.7668 111.343C45.0254 112.558 44.4693 113.774 43.7279 114.896C43.5426 115.27 42.9865 115.55 42.5231 115.644C41.5964 115.737 40.6696 115.644 39.4648 115.644C40.7623 113.306 41.8744 111.063 43.0792 108.913C44.4693 106.295 45.9521 103.677 47.4349 101.06C48.547 99.003 49.6591 96.9463 50.8639 94.9831C51.0492 94.7026 51.5126 94.4222 51.8833 94.4222C52.9954 94.3287 54.0148 94.4222 55.1269 94.4222C55.683 94.4222 55.961 94.5157 56.0537 95.1701C56.9805 101.247 57.9999 107.323 58.9266 113.4C59.0193 114.148 59.112 114.896 59.2973 115.737C58.2779 115.737 57.2585 115.831 56.3317 115.644C55.961 115.55 55.5903 114.989 55.4977 114.615C55.3123 113.4 55.2196 112.185 55.0343 110.782ZM48.0836 107.791C49.8445 107.791 51.5126 107.791 53.0881 107.791C54.4782 107.791 54.6636 107.51 54.4782 106.108C54.1075 103.771 53.7368 101.434 53.3661 99.0965C53.3661 98.9095 53.1808 98.7225 53.0881 98.4421C52.9027 98.6291 52.6247 98.7225 52.532 98.9095C51.1419 101.434 49.7518 103.958 48.4543 106.482C48.1763 106.856 48.1763 107.23 48.0836 107.791Z" fill="#F2F2F2"/>
<path d="M241.961 115.642C240.757 115.642 239.645 115.642 238.625 115.642C238.347 115.642 238.069 115.268 237.976 114.988C237.328 112.838 236.772 110.688 236.123 108.631C235.845 107.603 235.567 106.668 234.362 106.2C233.343 105.826 232.879 106.013 232.601 107.135C232.045 109.753 231.396 112.277 230.933 114.895C230.84 115.642 230.47 115.736 229.914 115.736C229.543 115.736 229.265 115.736 228.894 115.736C226.855 115.736 226.855 115.736 227.319 113.679C228.616 107.603 229.914 101.432 231.211 95.3559C231.304 94.7015 231.582 94.3275 232.323 94.421C233.25 94.421 234.177 94.421 235.289 94.421C234.918 96.0103 234.64 97.5061 234.362 99.0018C234.084 100.124 233.899 101.246 233.621 102.367C233.435 103.396 233.806 103.863 234.825 103.489C235.567 103.209 236.308 102.741 236.772 102.18C237.976 100.404 239.089 98.5344 240.293 96.7582C241.683 94.795 243.63 94.1406 246.132 94.421C245.854 95.2624 245.668 96.0103 245.39 96.6647C245.298 96.8517 244.834 97.1321 244.556 97.0386C243.352 96.9452 242.796 97.5996 242.239 98.5344C241.405 99.9367 240.479 101.339 239.459 102.648C238.996 103.302 238.162 103.77 237.42 104.144C236.864 104.424 236.772 104.705 237.235 104.985C239.181 105.92 239.83 107.696 240.293 109.659C240.849 111.623 241.405 113.586 241.961 115.642Z" fill="#F2F2F2"/>
<path d="M141.323 100.217C140.025 100.311 138.913 100.498 137.708 100.591C137.616 100.404 137.43 100.311 137.337 100.124C136.874 97.2258 133.816 96.7583 131.592 97.3193C129.275 97.8802 127.885 99.4694 126.958 101.62C125.938 104.05 125.475 106.481 126.031 109.099C126.402 111.062 127.514 112.558 129.553 112.931C131.777 113.305 133.723 112.651 135.113 110.688C135.577 110.127 135.855 109.379 136.318 108.631C137.43 108.818 138.635 109.005 139.84 109.192C137.894 114.895 131.684 117.793 126.494 115.456C124.085 114.334 122.695 112.277 122.231 109.659C121.49 105.64 122.324 101.9 124.548 98.5346C127.143 94.6082 132.796 92.8319 137.059 94.7016C139.469 95.6365 140.859 97.5062 141.323 100.217Z" fill="#F2F2F2"/>
<path d="M225.281 100.218C224.169 100.311 223.056 100.498 221.944 100.592C221.759 100.592 221.481 100.311 221.481 100.124C221.11 98.6283 220.369 97.6935 218.886 97.3195C217.218 96.9456 215.735 97.0391 214.16 97.8805C211.565 99.2828 210.731 101.807 210.175 104.425C209.897 105.92 209.897 107.603 210.175 109.192C210.453 111.156 211.657 112.558 213.604 112.932C215.735 113.399 217.681 112.651 219.071 110.875C219.535 110.314 219.813 109.566 220.276 108.725C221.388 108.912 222.593 109.099 223.798 109.286C221.944 114.988 215.457 117.98 210.453 115.549C208.136 114.428 206.746 112.371 206.282 109.847C205.541 105.827 206.375 102.087 208.599 98.7218C211.194 94.7954 216.754 93.0192 221.11 94.8889C223.334 95.4498 225.095 97.8805 225.281 100.218Z" fill="#F2F2F2"/>
<path d="M3.51126 98.72C4.53069 96.1023 6.47687 94.7935 8.79375 94.1391C11.2033 93.4847 13.5202 93.9522 15.6517 95.261C18.8953 97.2242 18.988 101.525 15.8371 103.675C15.3737 103.955 15.003 104.236 14.5396 104.423C13.7055 104.797 13.7982 105.171 14.4469 105.544C18.1539 107.788 17.2272 112.275 14.1689 114.332C10.5546 116.669 6.66222 116.856 2.86253 114.8C1.84311 114.239 1.19438 112.93 0.452978 111.902C0.360303 111.808 0.638328 111.247 0.823679 111.154C1.65776 110.78 2.58451 110.593 3.41858 110.406C3.60394 110.406 4.06731 110.686 4.25266 110.967C5.64279 113.21 9.81317 113.771 11.852 111.995C12.8715 111.06 13.2422 109.658 12.8715 108.443C12.4081 106.947 11.2033 106.573 9.81317 106.386C9.44247 106.292 8.9791 106.386 8.42304 106.386C8.60839 105.357 8.79375 104.516 8.9791 103.581C9.07177 103.394 9.53515 103.207 9.81317 103.114C10.5546 102.927 11.4813 103.02 12.2227 102.74C13.7982 102.179 14.4469 100.87 14.2616 99.1874C14.1689 98.159 13.2422 97.2242 11.9447 97.1307C10.1839 96.9437 8.33037 97.0372 7.31094 98.9069C7.21827 99.0939 6.84757 99.2809 6.56954 99.2809C5.73546 99.1874 4.71604 98.9069 3.51126 98.72Z" fill="#F2F2F2"/>
<path d="M101.28 115.83C101.28 115.549 101.372 115.269 101.372 115.082C101.465 113.212 101.465 113.119 103.318 113.212C105.265 113.306 107.674 110.688 106.933 108.444C105.635 104.331 104.523 100.031 103.318 95.8237C103.226 95.3563 103.133 94.8888 102.948 94.3279C104.152 94.3279 105.172 94.2344 106.191 94.3279C106.469 94.3279 106.933 94.7954 106.933 95.0758C107.674 98.2544 108.323 101.339 108.972 104.518C109.064 104.985 109.342 105.359 109.62 105.733C109.991 105.453 110.454 105.266 110.732 104.892C113.049 101.62 115.366 98.3478 117.683 95.1693C117.961 94.7954 118.61 94.5149 119.073 94.4214C120 94.3279 121.019 94.4214 122.039 94.4214C122.039 94.6084 122.039 94.7954 121.946 94.8888C117.127 101.246 112.401 107.696 107.581 114.054C106.099 116.11 103.874 116.578 101.28 115.83Z" fill="#F2F2F2"/>
<path d="M146.503 115.643C147.8 109.473 149.098 103.49 150.302 97.3197C148.078 97.3197 146.132 97.3197 143.908 97.3197C144.093 96.2913 144.278 95.45 144.464 94.7021C144.556 94.5151 144.927 94.3281 145.112 94.3281C150.395 94.3281 155.585 94.3281 161.053 94.3281C160.867 95.263 160.775 96.0109 160.497 96.7588C160.404 97.0392 159.848 97.3197 159.477 97.3197C157.716 97.4132 155.955 97.3197 154.102 97.3197C153.083 102.181 152.063 106.855 151.136 111.623C150.858 112.745 150.766 113.867 150.395 114.989C150.302 115.269 149.839 115.643 149.561 115.643C148.727 115.736 147.707 115.643 146.503 115.643Z" fill="#F2F2F2"/>
<path d="M306.462 97.3197C304.145 97.3197 302.199 97.3197 300.067 97.3197C300.253 96.3848 300.438 95.5435 300.623 94.7021C300.623 94.5151 300.994 94.3281 301.179 94.3281C306.462 94.3281 311.744 94.3281 317.212 94.3281C317.027 95.263 316.934 96.0109 316.656 96.7588C316.564 97.0392 316.008 97.3197 315.637 97.3197C313.876 97.4132 312.115 97.3197 310.262 97.3197C309.057 103.209 307.759 108.912 306.647 114.708C306.462 115.456 306.277 115.736 305.535 115.736C304.608 115.736 303.682 115.736 302.57 115.736C303.96 109.566 305.165 103.583 306.462 97.3197Z" fill="#F2F2F2"/>
<path d="M79.5017 94.5143C79.3163 95.1687 79.2237 96.0101 79.0383 96.758C78.9456 97.0385 78.4823 97.2254 78.1116 97.2254C76.7214 97.3189 75.3313 97.2254 73.8485 97.2254C73.4778 97.2254 73.0144 97.2254 72.6437 97.3189C71.439 103.115 70.1415 108.911 69.0294 114.614C68.844 115.362 68.6587 115.642 67.9173 115.642C66.9905 115.642 66.0638 115.642 65.0444 115.642C65.5077 113.399 65.9711 111.248 66.4345 109.098C67.1759 105.452 68.01 101.9 68.7514 98.2538C68.9367 97.5994 68.6587 97.2254 67.9173 97.2254C66.1565 97.2254 64.4883 97.2254 62.4495 97.2254C62.6348 96.2906 62.7275 95.5427 63.0055 94.7013C63.0982 94.5143 63.4689 94.2339 63.7469 94.2339C68.9367 94.2339 74.2192 94.2339 79.409 94.2339C79.3163 94.3274 79.3163 94.4208 79.5017 94.5143Z" fill="#F2F2F2"/>
<path d="M165.048 107.042C165.048 103.957 165.975 101.245 168.014 99.0018C169.404 97.4125 172.091 96.3842 174.779 97.506C176.632 98.2539 177.745 100.03 177.837 102.461C177.93 105.92 176.911 108.911 174.408 111.248C172.369 113.212 169.311 113.399 166.994 111.809C165.697 110.968 165.048 109.379 165.048 107.042Z" fill="#373334"/>
</g>
</svg>
