<svg width="25" height="25" viewBox="0 0 25 25" fill="none" xmlns="http://www.w3.org/2000/svg">
<path fill-rule="evenodd" clip-rule="evenodd" d="M12.9199 7.13691C13.045 7.01193 13.2145 6.94171 13.3913 6.94171C13.5681 6.94171 13.7376 7.01193 13.8626 7.13691L18.5293 11.8038C18.6543 11.9288 18.7245 12.0984 18.7245 12.2752C18.7245 12.452 18.6543 12.6215 18.5293 12.7465L13.8626 17.4134C13.7369 17.5349 13.5685 17.6021 13.3937 17.6005C13.2189 17.599 13.0517 17.5289 12.9281 17.4053C12.8045 17.2817 12.7343 17.1145 12.7328 16.9397C12.7313 16.7649 12.7985 16.5964 12.9199 16.4707L16.4486 12.9419H7.39128C7.21447 12.9419 7.0449 12.8716 6.91987 12.7466C6.79485 12.6216 6.72461 12.452 6.72461 12.2752C6.72461 12.0983 6.79485 11.9288 6.91987 11.8037C7.0449 11.6787 7.21447 11.6085 7.39128 11.6085H16.4486L12.9199 8.07963C12.795 7.9546 12.7248 7.78505 12.7248 7.60827C12.7248 7.43148 12.795 7.26194 12.9199 7.13691Z" fill="#9F0023"/>
</svg>
