<svg width="25" height="25" viewBox="0 0 25 25" fill="none" xmlns="http://www.w3.org/2000/svg">
<path fill-rule="evenodd" clip-rule="evenodd" d="M12.0789 7.13691C12.2039 7.26194 12.2741 7.43148 12.2741 7.60827C12.2741 7.78505 12.2039 7.9546 12.0789 8.07963L8.55027 11.6085H17.6076C17.7844 11.6085 17.954 11.6787 18.079 11.8037C18.204 11.9288 18.2743 12.0983 18.2743 12.2752C18.2743 12.452 18.204 12.6216 18.079 12.7466C17.954 12.8716 17.7844 12.9419 17.6076 12.9419H8.55027L12.0789 16.4707C12.2004 16.5964 12.2676 16.7649 12.2661 16.9397C12.2645 17.1145 12.1944 17.2817 12.0708 17.4053C11.9472 17.5289 11.78 17.599 11.6052 17.6005C11.4304 17.6021 11.262 17.5349 11.1363 17.4134L6.4696 12.7465C6.34462 12.6215 6.27441 12.452 6.27441 12.2752C6.27441 12.0984 6.34462 11.9288 6.4696 11.8038L11.1363 7.13691C11.2613 7.01193 11.4308 6.94171 11.6076 6.94171C11.7844 6.94171 11.9539 7.01193 12.0789 7.13691Z" fill="#9F0023"/>
</svg>
